<svg xmlns="http://www.w3.org/2000/svg" viewBox="518 418 1082 1163" aria-label="blop logo" style="pointer-events: auto;">
  <style>
    .blop-logo { fill: #1a1a2e; }
    @media (prefers-color-scheme: dark) {
      .blop-logo { fill: #f0f0f0; }
    }
  </style>
  <path class="blop-logo" d="M778.168 548.817C847.546 503.006 932.829 488.99 985.364 567.343C1001.32 591.145 1006.61 616.197 1014.44 643.308C1031.27 704.594 1055.53 757.69 1101.69 802.77L1123.9 822.653C1147.96 841.378 1159.64 849.92 1187.66 863.684C1201.05 869.776 1214.69 875.294 1228.55 880.222C1260.71 889.132 1283.96 894.03 1317.6 895.814C1373.74 898.789 1427.16 887.944 1481.09 909.492C1490.53 913.266 1504.7 920.131 1512.09 927.28C1517.52 931.272 1522.59 935.736 1527.24 940.619C1539.06 952.791 1548.96 964.459 1556.62 979.83C1564.32 993.823 1570.5 1013.13 1573.92 1028.79C1576.54 1041.8 1579.35 1063.04 1579.29 1076.32C1579.08 1124.12 1560.53 1199.59 1538.73 1241.73L1538.25 1242.35C1531.83 1260.6 1482.92 1347.24 1471.03 1354.25C1467.85 1360.71 1458.58 1371.81 1453.32 1377C1450.77 1380.19 1440.98 1391.26 1438.19 1393.27C1434.17 1397.77 1431.17 1401.08 1426.75 1405.23L1425.93 1405.9C1422.08 1409.72 1418.48 1413.46 1414.27 1416.9C1412.31 1418.71 1409.75 1421.22 1407.73 1422.83C1392.35 1436.13 1371.61 1454.05 1354.25 1465.22C1306.99 1495.64 1252.92 1522.88 1198.09 1536.2C1191.72 1537.75 1179.56 1541.1 1173.33 1541.93C1160.04 1545.41 1136.36 1549.71 1122.53 1550.8C1047.53 1560.65 942.92 1546.61 874.357 1514.55C867.696 1512.39 852.922 1506.03 846.839 1502.6C826.216 1493.71 804.486 1479.04 785.651 1466.72L774.241 1458.69C751.336 1441.61 712.666 1411.67 694.791 1389.1C688.887 1383.88 683.892 1377.74 678.749 1371.77L674.164 1366.4C664.194 1354.24 647.115 1332.59 639.473 1319.19C639.004 1318.64 638.546 1318.07 638.097 1317.49C627.331 1303.76 614.883 1279.59 607.149 1264.3C557.831 1165.1 538.645 1053.63 551.958 943.648C552.186 935.913 555.542 915.133 556.986 907.214C578.005 794.084 631.528 689.527 711.013 606.326C730.6 585.969 743.628 572.54 767.445 556.026C771.091 553.264 774.328 551.25 778.168 548.817Z" style="pointer-events: auto;"></path>
  <path class="blop-logo" d="M1184.54 628.609C1183.85 627.636 1182.9 624.427 1182.57 623.169C1158.2 529.79 1232.33 438.5 1329.66 447.768C1345.03 449.232 1365.45 452.607 1378.73 460.337C1385.76 462.988 1392.36 466.655 1398.32 471.22C1442.24 502.657 1463.03 549.949 1456.74 604.116C1452.27 642.696 1442.43 661.553 1414.4 689.775L1404.23 698.729C1395.55 705.294 1380.5 715.391 1369.7 717.206C1363.5 722.891 1335.55 727.192 1326.39 727.762C1290.19 730.285 1254.48 718.223 1227.22 694.263L1221.99 689.403C1212.65 680.066 1204.66 671.762 1198.3 660.138C1192.59 652.076 1187 638.174 1184.54 628.609Z"></path>
</svg>